/* XPM */
static char * logo5_xpm[] = {
"32 32 548 2",
"  	c None",
". 	c #5F2000",
"+ 	c #411300",
"@ 	c #692400",
"# 	c #340F00",
"$ 	c #ED5E00",
"% 	c #8D3500",
"& 	c #CC4F00",
"* 	c #9C3B00",
"= 	c #4B1800",
"- 	c #120300",
"; 	c #D65400",
"> 	c #B84800",
", 	c #8A3600",
"' 	c #FF6900",
") 	c #C24E00",
"! 	c #7B2F00",
"~ 	c #FC6800",
"{ 	c #BD4C00",
"] 	c #4A1700",
"^ 	c #591D00",
"/ 	c #BF4900",
"( 	c #D75500",
"_ 	c #401400",
": 	c #D55600",
"< 	c #FB6800",
"[ 	c #873600",
"} 	c #A94600",
"| 	c #FF6D00",
"1 	c #D85B00",
"2 	c #BD4F00",
"3 	c #CC5500",
"4 	c #521D00",
"5 	c #E25900",
"6 	c #A43E00",
"7 	c #963800",
"8 	c #571E00",
"9 	c #A44000",
"0 	c #FF6A00",
"a 	c #C55200",
"b 	c #FF6E00",
"c 	c #D95D00",
"d 	c #000000",
"e 	c #BC5200",
"f 	c #FF7100",
"g 	c #C25400",
"h 	c #E16300",
"i 	c #CA5700",
"j 	c #CB5400",
"k 	c #9E3E00",
"l 	c #D95600",
"m 	c #F26300",
"n 	c #9B3E00",
"o 	c #D25800",
"p 	c #EE6700",
"q 	c #A74700",
"r 	c #FF7200",
"s 	c #FE7200",
"t 	c #723000",
"u 	c #C55900",
"v 	c #FF7500",
"w 	c #A34900",
"x 	c #F87200",
"y 	c #BC5400",
"z 	c #823600",
"A 	c #FD6E00",
"B 	c #782F00",
"C 	c #3A1100",
"D 	c #7E2E00",
"E 	c #9D3E00",
"F 	c #FF6B00",
"G 	c #FA6B00",
"H 	c #A64700",
"I 	c #D65E00",
"J 	c #9E4500",
"K 	c #FF7600",
"L 	c #BA5600",
"M 	c #CC5F00",
"N 	c #FF7900",
"O 	c #A14A00",
"P 	c #FF7800",
"Q 	c #AC4F00",
"R 	c #D56000",
"S 	c #EE6900",
"T 	c #070100",
"U 	c #742C00",
"V 	c #E15B00",
"W 	c #DF5800",
"X 	c #863100",
"Y 	c #7D2E00",
"Z 	c #150400",
"` 	c #D45B00",
" .	c #FD7200",
"..	c #A54A00",
"+.	c #713100",
"@.	c #E56C00",
"#.	c #FF7A00",
"$.	c #E66F00",
"%.	c #AD5300",
"&.	c #FF7D00",
"*.	c #A54E00",
"=.	c #FC7B00",
"-.	c #994600",
";.	c #FD7600",
">.	c #C45800",
",.	c #8F3C00",
"'.	c #F46800",
").	c #A74200",
"!.	c #CB4F00",
"~.	c #FF6800",
"{.	c #EB6300",
"].	c #973F00",
"^.	c #F26D00",
"/.	c #FA7600",
"(.	c #944500",
"_.	c #B45600",
":.	c #FF7E00",
"<.	c #FE7F00",
"[.	c #9F4E00",
"}.	c #F77D00",
"|.	c #9E4E00",
"1.	c #FF8100",
"2.	c #D96C00",
"3.	c #C76000",
"4.	c #FF7B00",
"5.	c #FC7800",
"6.	c #984400",
"7.	c #FA7000",
"8.	c #FF7000",
"9.	c #DD5E00",
"0.	c #310F00",
"a.	c #431500",
"b.	c #D15600",
"c.	c #ED6800",
"d.	c #9B4500",
"e.	c #F97600",
"f.	c #FF7C00",
"g.	c #F57900",
"h.	c #823E00",
"i.	c #F47C00",
"j.	c #FF8300",
"k.	c #A55300",
"l.	c #EB7A00",
"m.	c #9D5000",
"n.	c #FF8500",
"o.	c #AA5600",
"p.	c #F17900",
"q.	c #FF7F00",
"r.	c #D46700",
"s.	c #BF5800",
"t.	c #F66F00",
"u.	c #6A2B00",
"v.	c #411600",
"w.	c #762D00",
"x.	c #843200",
"y.	c #511A00",
"z.	c #622100",
"A.	c #C24B00",
"B.	c #BF4C00",
"C.	c #AB4600",
"D.	c #9E4300",
"E.	c #AA4A00",
"F.	c #AF4F00",
"G.	c #984700",
"H.	c #FA7C00",
"I.	c #DB7100",
"J.	c #AD5900",
"K.	c #D36E00",
"L.	c #854100",
"M.	c #9C4700",
"N.	c #7B3600",
"O.	c #BA6200",
"P.	c #984E00",
"Q.	c #FF8400",
"R.	c #FD8200",
"S.	c #974900",
"T.	c #DD6A00",
"U.	c #AF5000",
"V.	c #9D4700",
"W.	c #BF5600",
"X.	c #E26400",
"Y.	c #FA6C00",
"Z.	c #FC6600",
"`.	c #A43D00",
" +	c #300C00",
".+	c #C24C00",
"++	c #FE6900",
"@+	c #F16E00",
"#+	c #C65C00",
"$+	c #803B00",
"%+	c #974A00",
"&+	c #F57F00",
"*+	c #F38000",
"=+	c #7C3700",
"-+	c #C94200",
";+	c #F65100",
">+	c #FF5200",
",+	c #FE5300",
"'+	c #E24A00",
")+	c #A03900",
"!+	c #D06D00",
"~+	c #C86800",
"{+	c #5F2D00",
"]+	c #B25900",
"^+	c #EC7400",
"/+	c #FF7700",
"(+	c #FF7300",
"_+	c #FF6F00",
":+	c #E66100",
"<+	c #8B3600",
"[+	c #953C00",
"}+	c #E36200",
"|+	c #DB6E00",
"1+	c #954C00",
"2+	c #934300",
"3+	c #EA4D00",
"4+	c #FF4E00",
"5+	c #FC4800",
"6+	c #E84100",
"7+	c #F34400",
"8+	c #FF4C00",
"9+	c #FD5100",
"0+	c #AC3A00",
"a+	c #8F4A00",
"b+	c #D76100",
"c+	c #A04400",
"d+	c #A14200",
"e+	c #A34000",
"f+	c #883300",
"g+	c #120400",
"h+	c #934000",
"i+	c #BC5600",
"j+	c #BC5800",
"k+	c #C76100",
"l+	c #D86D00",
"m+	c #BB6000",
"n+	c #CF4400",
"o+	c #FF4F00",
"p+	c #E33E01",
"q+	c #6B1E10",
"r+	c #161616",
"s+	c #2C1614",
"t+	c #B33006",
"u+	c #FD4900",
"v+	c #F95100",
"w+	c #984200",
"x+	c #F18000",
"y+	c #E47600",
"z+	c #C86300",
"A+	c #A74F00",
"B+	c #9F4900",
"C+	c #C85A00",
"D+	c #F66D00",
"E+	c #F16000",
"F+	c #732800",
"G+	c #933700",
"H+	c #C04E00",
"I+	c #D95C00",
"J+	c #E36400",
"K+	c #EE6D00",
"L+	c #F07100",
"M+	c #E56F00",
"N+	c #DE6F00",
"O+	c #CA6800",
"P+	c #753500",
"Q+	c #FA5200",
"R+	c #FC4900",
"S+	c #681E10",
"T+	c #1A1A1A",
"U+	c #181818",
"V+	c #CC3703",
"W+	c #BB3D00",
"X+	c #120500",
"Y+	c #602C00",
"Z+	c #A54C00",
"`+	c #A54900",
" @	c #A14500",
".@	c #B14A00",
"+@	c #A24100",
"@@	c #4B1900",
"#@	c #642200",
"$@	c #E65B00",
"%@	c #FF8000",
"&@	c #A44B00",
"*@	c #F04300",
"=@	c #151515",
"-@	c #A62C09",
";@	c #FF4D00",
">@	c #C36700",
",@	c #F88100",
"'@	c #FC7000",
")@	c #EC6500",
"!@	c #D35600",
"~@	c #A43F00",
"{@	c #320D00",
"]@	c #722B00",
"^@	c #9C4000",
"/@	c #B54E00",
"(@	c #C05600",
"_@	c #CC6200",
":@	c #BE5E00",
"<@	c #B25A00",
"[@	c #733100",
"}@	c #FD5200",
"|@	c #F94700",
"1@	c #4C1A12",
"2@	c #191919",
"3@	c #BF3304",
"4@	c #C34000",
"5@	c #D36F00",
"6@	c #FA6700",
"7@	c #DD5700",
"8@	c #6B2500",
"9@	c #080100",
"0@	c #893500",
"a@	c #C45200",
"b@	c #DF6200",
"c@	c #DA6300",
"d@	c #D06100",
"e@	c #CD6300",
"f@	c #BD5D00",
"g@	c #A75400",
"h@	c #703700",
"i@	c #E04A00",
"j@	c #C73504",
"k@	c #2A1716",
"l@	c #7E220D",
"m@	c #F54500",
"n@	c #FE5200",
"o@	c #9E3B00",
"p@	c #A75700",
"q@	c #A15200",
"r@	c #A14F00",
"s@	c #A44E00",
"t@	c #A34600",
"u@	c #923B00",
"v@	c #632500",
"w@	c #1B0500",
"x@	c #DA5500",
"y@	c #FF6C00",
"z@	c #FD6F00",
"A@	c #DC6300",
"B@	c #AB4E00",
"C@	c #9E4A00",
"D@	c #B95A00",
"E@	c #D96F00",
"F@	c #E37700",
"G@	c #983B00",
"H@	c #E74000",
"I@	c #C13404",
"J@	c #CF3802",
"K@	c #FA4800",
"L@	c #FF5000",
"M@	c #CD4300",
"N@	c #884700",
"O@	c #FB8500",
"P@	c #F97900",
"Q@	c #DE6800",
"R@	c #A64A00",
"S@	c #401700",
"T@	c #782B00",
"U@	c #A13F00",
"V@	c #AA4600",
"W@	c #994000",
"X@	c #C25600",
"Y@	c #F06F00",
"Z@	c #FF8200",
"`@	c #FD8400",
" #	c #A65700",
".#	c #892D00",
"+#	c #ED4E00",
"@#	c #FF5100",
"##	c #FB5200",
"$#	c #C74100",
"%#	c #904A00",
"&#	c #D57300",
"*#	c #964D00",
"=#	c #D06900",
"-#	c #FC7D00",
";#	c #FF7400",
">#	c #EF6900",
",#	c #AE4700",
"'#	c #2F0E00",
")#	c #5F2200",
"!#	c #CD5400",
"~#	c #FC6D00",
"{#	c #F87A00",
"]#	c #CA6500",
"^#	c #994C00",
"/#	c #BE6000",
"(#	c #924A00",
"_#	c #864200",
":#	c #983800",
"<#	c #A53500",
"[#	c #A23700",
"}#	c #732E00",
"|#	c #C96C00",
"1#	c #934D00",
"2#	c #F38100",
"3#	c #FA8300",
"4#	c #BB5E00",
"5#	c #682F00",
"6#	c #B95600",
"7#	c #EA6B00",
"8#	c #DF5900",
"9#	c #632200",
"0#	c #6D2600",
"a#	c #EE5E00",
"b#	c #D15E00",
"c#	c #A74C00",
"d#	c #A04900",
"e#	c #D46400",
"f#	c #FA7A00",
"g#	c #A24F00",
"h#	c #E27400",
"i#	c #9A4F00",
"j#	c #FB8700",
"k#	c #B56000",
"l#	c #D87300",
"m#	c #B15E00",
"n#	c #E47900",
"o#	c #DF7500",
"p#	c #AF5900",
"q#	c #C05D00",
"r#	c #904100",
"s#	c #B35100",
"t#	c #9E4400",
"u#	c #A74500",
"v#	c #C14E00",
"w#	c #CE5100",
"x#	c #8A3200",
"y#	c #893300",
"z#	c #8B3500",
"A#	c #642600",
"B#	c #260A00",
"C#	c #DD6200",
"D#	c #BE5900",
"E#	c #CD6400",
"F#	c #E57200",
"G#	c #BA5F00",
"H#	c #CE6B00",
"I#	c #D06B00",
"J#	c #D16C00",
"K#	c #CA6700",
"L#	c #E06F00",
"M#	c #B95500",
"N#	c #D25E00",
"O#	c #E96400",
"P#	c #712B00",
"Q#	c #B04900",
"R#	c #B65500",
"S#	c #C45E00",
"T#	c #CD6700",
"U#	c #D06800",
"V#	c #E17200",
"W#	c #B95B00",
"X#	c #DC6C00",
"Y#	c #612B00",
"Z#	c #ED7100",
"`#	c #FD7400",
" $	c #9D4400",
".$	c #E76400",
"+$	c #F36300",
"@$	c #6F2800",
"#$	c #672600",
"$$	c #F56600",
"%$	c #FE6C00",
"&$	c #C35300",
"*$	c #8B3C00",
"=$	c #FD7500",
"-$	c #F77800",
";$	c #BE5C00",
">$	c #DD6C00",
",$	c #ED7400",
"'$	c #FD7900",
")$	c #944200",
"!$	c #F46F00",
"~$	c #F16800",
"{$	c #732D00",
"]$	c #A94400",
"^$	c #D45400",
"/$	c #AC4100",
"($	c #B24400",
"_$	c #F46200",
":$	c #A04000",
"<$	c #C65600",
"[$	c #F56F00",
"}$	c #853B00",
"|$	c #AE5100",
"1$	c #E96E00",
"2$	c #F07200",
"3$	c #833A00",
"4$	c #AC4D00",
"5$	c #D25C00",
"6$	c #933E00",
"7$	c #ED6600",
"8$	c #C95200",
"9$	c #571D00",
"0$	c #E96300",
"a$	c #B94F00",
"b$	c #883B00",
"c$	c #A14800",
"d$	c #F97200",
"e$	c #EF6E00",
"f$	c #070200",
"g$	c #E86800",
"h$	c #D45D00",
"i$	c #C65400",
"j$	c #ED6400",
"k$	c #8F3900",
"l$	c #DD5A00",
"m$	c #FA6400",
"n$	c #551C00",
"o$	c #491900",
"p$	c #EF6400",
"q$	c #531E00",
"r$	c #943E00",
"s$	c #FE7100",
"t$	c #9F4400",
"u$	c #E36500",
"v$	c #B14B00",
"w$	c #EA6400",
"x$	c #983D00",
"y$	c #FD6800",
"z$	c #CC5100",
"A$	c #2F0D00",
"B$	c #A03C00",
"C$	c #F66200",
"D$	c #973D00",
"E$	c #E66200",
"F$	c #D75B00",
"G$	c #4A1A00",
"H$	c #E96100",
"I$	c #541D00",
"J$	c #9C3C00",
"K$	c #C74D00",
"L$	c #6A2500",
"M$	c #8F3800",
"N$	c #B84A00",
"O$	c #BC4C00",
"P$	c #642300",
"Q$	c #581E00",
"R$	c #EC5D00",
"S$	c #632300",
"T$	c #441600",
"U$	c #823000",
"V$	c #702700",
"W$	c #3F1300",
"                              .     +                           ",
"                    @       # $ %   & *                         ",
"              = -   ; >     , ' ) ! ~ {     ] ^                 ",
"              / ( _ : < [   } | 1 2 | 3   4 5 6                 ",
"          7 8 9 0 3 a b c d e f g h f i d j 0 k                 ",
"          l m n o p q r s t u v w x v y z A | B   C D           ",
"          E F G H I J v K L M N O N P Q R r S T U V W           ",
"      X Y Z ` f  ...+.@.#.$.%.&.*.&.=.-.;.K >.,.'.F ).          ",
"      !.~.{.].^.K /.(._.:.<.[.}.|.1.2.3.4.5.6.7.8.9.0.          ",
"      a.b.| c.d.e.f.g.h.i.j.k.l.m.n.o.p.q.r.s.K t.u.d v.w.x.y.  ",
"  z.A.B.C.D.E.F.G.H.1.I.J.K.L.M.N.O.P.Q.R.S.T.U.V.W.X.Y.0 Z.`.  ",
"   +.+++| f @+#+$+%+&+*+=+-+;+>+,+'+)+!+~+{+]+^+#./+(+_+:+<+    ",
"      [+}+r K #.&.|+1+2+3+4+5+6+7+8+9+0+a+*+j.q.f./.b+c+d+e+f+  ",
"        g+h+i+j+k+l+m+n+o+p+q+r+s+t+u+v+w+x+y+z+A+B+C+D+| ' E+F+",
"  G+H+I+J+K+L+M+N+O+P+Q+R+S+T+T+T+U+V+o+W+d X+Y+(.Z+`+ @.@+@@@  ",
"#@$@' | f v N &.%@Q.&@>+*@=@T+T+T+T+-@;@n+>@,@1.&.N v '@)@!@~@{@",
"  d ]@^@/@(@M _@:@<@[@}@|@1@T+T+T+2@3@4+4@5@Q.1.&.N v f | 6@7@8@",
"  9@0@a@b@c@d@e@f@g@h@i@;@j@k@T+2@l@m@n@o@p@q@r@s@Z+`+t@u@v@d   ",
"w@x@~.y@z@A@B@C@D@E@F@G@v+8+H@I@J@K@L@M@N@O@j.%@P@Q@R@S@        ",
"  T@U@V@W@X@Y@4.:.Z@`@ #.#+#@#o+L@##$#%#&#*#=#-#4./+;#>#,#'#    ",
"    )#!#~#r K N {#]#^#/#(#_#:#<#[#}#|#1#2#3#4#5#6#7#r b F 8#9#  ",
"  0#a#' | S b#c#d#e#f#g#h#i#j#k#l#m#n#o#p#Z@%@q#r#s#t#u#v#w#x#  ",
"  + y#z#A#d B#C#v P D#E#F#G#n.H#I#J#K#Z@|.L#&.#.M#N#f O#P#      ",
"            Q#8.r u R#4.S#N+1.T#U#V#W#q.X#Y#Z#/+`# $.$y@+$@$    ",
"          #$$$%$&$*$=$/+&@-$&.;$>$,$A+4.'$=+)$!$r ~${$]$^$/$    ",
"          ($_$:$d <$r [$}$P N |$1$2$3$/+K 4$5$6$7$y@8$          ",
"          0#9$  d 0$b a$b$;#v c$d$e$f$g$r h$i$j$k$l$m$n$        ",
"                o$~ p$q$r$f s$t$r u$d v$b w$x$y$z$A$B$9$        ",
"                0#C$z#  D$| E$} b F$d G$H$6@I$J$K$              ",
"                  L$    M$' N$M$0 O$    z#C$P$                  ",
"                        Q$R$S$T$a#U$      V$                    ",
"                          W$    #@d                             "};
