/* XPM */
static char *dummy[]={
"32 32 281 2",
"Qt c None",
"#p c #565656",
".A c #656565",
"cw c #717171",
".z c #343434",
"b3 c #555555",
"b7 c #494949",
".2 c #4c4c4c",
".# c #565656",
"cr c #595959",
"bQ c #434343",
"al c #494949",
".M c #3f3f3f",
"a7 c #363636",
".U c #3a3a3a",
"cv c #3b3b3b",
"cq c #323232",
"b8 c #2a2a2a",
"bW c #282828",
"cs c #282828",
".k c #343434",
"cf c #2a2a2a",
"a. c #292929",
"cu c #2d2d2d",
"ay c #343434",
"ct c #333333",
"b4 c #222222",
"#d c #212121",
"#H c #2c2c2c",
"b0 c #222222",
".j c #262626",
"aX c #353535",
".L c #1d1d1d",
"cg c #232323",
"bt c #282828",
"#e c #2b2b2b",
"aL c #252525",
"aP c #1f1f1f",
"bu c #252525",
"cb c #1d1d1d",
"bV c #1f1f1f",
"#G c #1a1a1a",
".a c #242424",
"bN c #1c1c1c",
".y c #1a1a1a",
".7 c #1b1b1b",
"ca c #1e1e1e",
".T c #1c1c1c",
"cp c #1a1a1a",
"ak c #181818",
".B c #222222",
"bM c #1c1c1c",
".1 c #1a1a1a",
"bl c #181818",
".i c #1b1b1b",
"#Y c #1d1d1d",
".8 c #1f1f1f",
"ch c #181818",
".l c #1e1e1e",
"bZ c #181818",
".b c #1c1c1c",
"ce c #161616",
"bm c #181818",
"b6 c #181818",
"ax c #151515",
"b9 c #171717",
"be c #141414",
"b2 c #181818",
"bR c #171717",
".h c #191919",
"#q c #1d1d1d",
".N c #1d1d1d",
"co c #141414",
".3 c #1c1c1c",
".c c #1a1a1a",
"aK c #151515",
"#X c #151515",
"#o c #151515",
"cc c #151515",
"a6 c #161616",
"ci c #141414",
".V c #1c1c1c",
"a# c #1a1a1a",
".K c #171717",
"bB c #161616",
".x c #171717",
"aO c #131313",
".g c #171717",
"aW c #121212",
"bA c #141414",
"bf c #181818",
".d c #181818",
"b5 c #151515",
"bX c #161616",
"bP c #141414",
".f c #1b1b1b",
"cn c #141414",
".e c #1c1c1c",
"b1 c #161616",
".m c #1c1c1c",
"c# c #131313",
".C c #1d1d1d",
"cj c #151515",
"am c #1e1e1e",
"#c c #161616",
"cd c #141414",
".S c #171717",
"#f c #1f1f1f",
"a8 c #1c1c1c",
"cm c #161616",
"#9 c #161616",
"#I c #202020",
"bU c #151515",
"ck c #161616",
".6 c #181818",
".0 c #191919",
"c. c #181818",
".w c #1c1c1c",
"bs c #151515",
"cl c #161616",
"bY c #171717",
"bL c #181818",
"#F c #191919",
"bk c #1b1b1b",
"aj c #1c1c1c",
"bv c #1d1d1d",
".J c #1e1e1e",
"aY c #1f1f1f",
"az c #202020",
"aw c #212121",
"aM c #222222",
"bT c #232323",
"aJ c #242424",
".n c #252525",
".v c #262626",
"a5 c #272727",
".R c #282828",
".9 c #292929",
"#b c #2a2a2a",
"a4 c #2b2b2b",
".Z c #2c2c2c",
".D c #2d2d2d",
".u c #2e2e2e",
".o c #2f2f2f",
".Q c #303030",
".Y c #313131",
".I c #323232",
".P c #333333",
".t c #343434",
".p c #353535",
".s c #363636",
".r c #373737",
".q c #383838",
".H c #393939",
".G c #3a3a3a",
".E c #3b3b3b",
".F c #3c3c3c",
".O c #3d3d3d",
".X c #3e3e3e",
".W c #3f3f3f",
".5 c #404040",
"aI c #414141",
"#n c #424242",
"#m c #434343",
"bC c #444444",
"#l c #454545",
".4 c #464646",
"#Q c #494949",
"bS c #4a4a4a",
"#a c #4b4b4b",
"#k c #4c4c4c",
"aV c #4d4d4d",
"#j c #4e4e4e",
"#Z c #4f4f4f",
"#J c #505050",
"bh c #525252",
"bb c #535353",
"#w c #545454",
"a2 c #555555",
"aT c #565656",
"ag c #575757",
"at c #585858",
"af c #595959",
"#. c #5a5a5a",
"as c #5b5b5b",
"## c #5e5e5e",
"a9 c #606060",
"aZ c #616161",
"#i c #626262",
"#g c #636363",
"aB c #646464",
"#t c #656565",
"#h c #666666",
"#P c #676767",
"#3 c #686868",
"ao c #696969",
"bg c #6d6d6d",
"b# c #6e6e6e",
"a0 c #6f6f6f",
"aR c #707070",
"aD c #717171",
"bE c #727272",
"aq c #737373",
"bj c #767676",
"bp c #777777",
"#4 c #787878",
"bd c #797979",
"#R c #7a7a7a",
"#x c #7b7b7b",
"a1 c #7c7c7c",
"aS c #7d7d7d",
"aE c #7e7e7e",
"bq c #828282",
"ah c #848484",
"aH c #868686",
"aN c #878787",
"aU c #888888",
"aF c #898989",
"au c #8a8a8a",
"bF c #909090",
"#E c #919191",
"ba c #9a9a9a",
"#8 c #9b9b9b",
"ar c #9c9c9c",
"#W c #9f9f9f",
"ad c #a1a1a1",
"b. c #a2a2a2",
"aQ c #a3a3a3",
"aC c #a4a4a4",
"bH c #a6a6a6",
"bK c #a8a8a8",
"bo c #acacac",
"bO c #afafaf",
"#s c #b1b1b1",
"#N c #b3b3b3",
"#u c #b6b6b6",
"ac c #b7b7b7",
"#5 c #b8b8b8",
"aa c #bcbcbc",
"ap c #bfbfbf",
"bw c #c2c2c2",
"#6 c #c7c7c7",
"aA c #c8c8c8",
"an c #c9c9c9",
"#v c #cbcbcb",
"#O c #cecece",
"#7 c #cfcfcf",
"#r c #d0d0d0",
"#K c #d1d1d1",
"#0 c #d3d3d3",
"bz c #d5d5d5",
"bx c #d6d6d6",
"by c #dcdcdc",
"#D c #dedede",
"ab c #e0e0e0",
"bD c #e1e1e1",
"#C c #e2e2e2",
"bn c #e3e3e3",
"#B c #e5e5e5",
"#y c #e6e6e6",
"bJ c #e7e7e7",
"#A c #e8e8e8",
"bI c #e9e9e9",
"#z c #eaeaea",
"br c #ededed",
"bi c #efefef",
"#S c #f1f1f1",
"bc c #f2f2f2",
"#V c #f3f3f3",
"a3 c #f4f4f4",
"bG c #f5f5f5",
"ae c #f6f6f6",
"#1 c #f7f7f7",
"#U c #f8f8f8",
"aG c #f9f9f9",
"av c #fafafa",
"ai c #fbfbfb",
"#T c #fcfcfc",
"#2 c #fdfdfd",
"#M c #fefefe",
"#L c #ffffff",
"QtQtQtQtQtQtQtQtQtQtQtQtQtQtQtQtQtQtQtQtQtQtQtQtQtQtQtQtQtQtQtQt",
"QtQtQtQtQtQtQtQtQtQt.#.a.b.c.d.e.f.g.h.i.jQtQtQtQtQtQtQtQtQtQtQt",
"QtQtQtQtQtQtQtQt.k.l.m.n.o.p.q.r.s.t.u.v.w.x.y.zQtQtQtQtQtQtQtQt",
"QtQtQtQtQtQt.A.B.C.D.E.F.E.E.G.H.q.s.p.t.I.D.J.K.LQtQtQtQtQtQtQt",
"QtQtQtQtQt.M.N.n.E.O.O.O.O.F.E.G.H.q.s.p.P.I.Q.R.S.TQtQtQtQtQtQt",
"QtQtQtQt.U.V.u.O.O.W.W.X.X.O.O.F.G.H.q.s.t.P.Y.o.Z.0.1QtQtQtQtQt",
"QtQtQt.2.3.o.X.F.4.F.W.5.W.W.X.O.E.G.H.r.p.P.I.Q.u.Z.6.7QtQtQtQt",
"QtQtQt.8.9.X.W.F#.###a.F.W.5.W.X.F.E.H.q.s.t.I.Q.o.D#b#c#dQtQtQt",
"QtQt#e#f.O.W.5.O#g#h#i###j#k.X.X.O.F.G.H#l#m#n.5.W.O.F.Z#o#pQtQt",
"QtQt#q.P.X.W.5#j#r#s#h#t#u#v#w.E.O.F.E#x#y#z#A#B#C#D#E.t#F#GQtQt",
"Qt#H#I.F.X.W#J#K#L#M#N#u#M#L#O#P#Q.G#R#S#L#L#T#U#V#W.P#b.n#XQtQt",
"Qt#Y.D.F.X#Z#0#1#M#L#2#M#1#L#L#O#3#4#5#6#O#M#T#7#8.p.Z#b.9#9a.Qt",
"Qta#.q.F.Oaa#Labac#M#L#Ladae#L#L#8afag#wah#Mai#R.u.u.Z#b.RajakQt",
"alam.G.E.Oan#Labaoap#L#Laq#8#L#Laras#.atau#2av#x.o.D.Z#b.RawaxQt",
"ayaz.H.G.FaA#LabaBaC#L#LaDaE#L#LarasafataF#TaGaHaI.I.Z#b.RaJaKQt",
"aLaM.q.H.EaA#Lab#gaC#L#LaDaE#L#Lar#.afagaFai#UaN#j#a.W.Q.9.vaOQt",
"aPaM.r.q.HaA#Lab#iaQ#L#LaRaS#L#L#8afagaTaUaGaeaNaV#k#m.t#b.naWQt",
"aXaY.p.r.qaA#LabaZaQ#L#La0a1#L#L#8agaTa2aN#1a3aH#l.sa4.Ra5aJa6Qt",
"a7a8.t.p.s#6#Laba9b.#L#Lb##x#L#LbaaTa2bbaNa3bcbd.D#b.9a5.vazbeQt",
"Qtbf.I.t.p#6#Lab##ad#L#Lbgbd#L#Lba#wbbbhahbcbibja4.9.Ra5.nbkblQt",
"Qtbm.9.I.H#O#Mbn#hbo#L#Lbpah#M#2b.bb#Q.qbqbibr#x#b.Ra5.v.nbsbtQt",
"Qtbubv.Q#E#1aiaibw#S#2#2bxbyaiaG#zao.Qasbzbr#z#r#ka5.v.naMbAQtQt",
"QtQtbBa4bC#O#1bDbE#NaGbcaubF#SbGaC.p.u.rbHbIbJbK.Q.v.naJbLbMQtQt",
"QtQtbN.w.u#maaaZ#ka2bOau#Q.Hahb..p.D.D.Z.saCbK.Y.v.naJawbPbQQtQt",
"QtQtQtbRaJ.D.s.obS#jbS.q.u.u.o.t.Z.Za4#b.9.P.Y.v.naJbTbUbVQtQtQt",
"QtQtQtbWbX.va4.oaI.s.D.Z.Z.Z.Za4a4#b.9.R.Ra5.v.naJbTbYbZQtQtQtQt",
"QtQtQtQtb0b1.n.Z.Z#b#b#b#b#b#b.9.9.R.Ra5.v.n.naJbTbLb2b3QtQtQtQt",
"QtQtQtQtQtb4b5az.R.R.9.9.R.R.R.Ra5a5.v.v.naJbTawbsb6b7QtQtQtQtQt",
"QtQtQtQtQtQtb8b9c.bTa5a5a5a5.v.v.v.n.naJaJbTbkc#caQtQtQtQtQtQtQt",
"QtQtQtQtQtQtQtQtcbccbY.JaJ.n.n.naJaJbTaz#FcdcecfQtQtQtQtQtQtQtQt",
"QtQtQtQtQtQtQtQtQtQtcgchcicjckclbscmcncocpcqQtQtQtQtQtQtQtQtQtQt",
"QtQtQtQtQtQtQtQtQtQtQtQtQtcrcsctcucvcwQtQtQtQtQtQtQtQtQtQtQtQtQt"};
